<svg xmlns="http://www.w3.org/2000/svg" width="2500" height="2500" viewBox="0 0 2500 2500"><g fill="none"><path fill="#FF5F00" d="M1131.75 1250c0 401.76 290.54 727.5 648.75 727.5s648.75-325.74 648.75-727.5c0-401.76-290.54-727.5-648.75-727.5S1131.75 848.24 1131.75 1250Z"/><path fill="#EB001B" d="M1250 522.5c-401.76 0-727.5 290.54-727.5 648.75c0 88.59 15.7 173.34 44.42 250.77C686.09 1081.7 1010.59 839.29 1250 839.29c239.41 0 463.91 242.41 583.08 582.73c28.72-77.43 44.42-162.18 44.42-250.77c0-358.21-325.74-648.75-727.5-648.75Z"/><path fill="#F79E1B" d="M1877.5 1422.02c-119.17-340.32-343.67-582.73-583.08-582.73c-239.41 0-463.91 242.41-583.08 582.73c119.17 340.32 343.67 582.73 583.08 582.73c239.41 0 463.91-242.41 583.08-582.73Z"/></g></svg>