<svg xmlns="http://www.w3.org/2000/svg" width="2500" height="2500" viewBox="0 0 2500 2500"><g fill="none"><path fill="#263D98" d="M1250 2500c690.36 0 1250-559.64 1250-1250S1940.36 0 1250 0 0 559.64 0 1250s559.64 1250 1250 1250Z"/><path fill="#fff" d="M1172.48 831.396h-233.1l-1.8 19.3-157.9 762.3 226.2 1.5 160.8-766.1h.7Zm340.3 358.5c-.3 150-101.4 220-218.4 220-107.1 0-185-50-185.3-125.1 0-3 .3-5.7.6-8.4l91.6-455.5h231l-38.3 229h.6c27.1-23.7 63.3-36.9 101.4-36.9c71.7 0 119.2 46.2 116.8 125.1Zm-493.7-358.5h-458.1c-29.2 0-51 18.6-53.7 44.4l-215.1 1015.4c-1.8 8.1 4.5 18.3 16.5 18.3h220.8l388.9-633.3c21.3-35.4 69.9-106.8 69.9-106.8l56.4-96.3c10-17.1 16.8-27.6 16.8-27.6s-107.4-1.8-142.5-1.8Z"/></g></svg>